<?xml version="1.0" encoding="UTF-8" standalone="no"?>
<!-- Created with Inkscape (http://www.inkscape.org/) -->

<svg
   xmlns:dc="http://purl.org/dc/elements/1.1/"
   xmlns:cc="http://creativecommons.org/ns#"
   xmlns:rdf="http://www.w3.org/1999/02/22-rdf-syntax-ns#"
   xmlns:svg="http://www.w3.org/2000/svg"
   xmlns="http://www.w3.org/2000/svg"
   xmlns:sodipodi="http://sodipodi.sourceforge.net/DTD/sodipodi-0.dtd"
   xmlns:inkscape="http://www.inkscape.org/namespaces/inkscape"
   width="64"
   height="64"
   viewBox="0 0 16.933333 16.933333"
   version="1.1"
   id="svg2657"
   inkscape:version="0.92.3 (2405546, 2018-03-11)"
   sodipodi:docname="logo.svg">
  <defs
     id="defs2651" />
  <sodipodi:namedview
     id="base"
     pagecolor="#ffffff"
     bordercolor="#666666"
     borderopacity="1.0"
     inkscape:pageopacity="0.0"
     inkscape:pageshadow="2"
     inkscape:zoom="7.9195959"
     inkscape:cx="29.676146"
     inkscape:cy="39.963668"
     inkscape:document-units="px"
     inkscape:current-layer="layer1"
     showgrid="false"
     units="px"
     width="64px"
     inkscape:window-width="2491"
     inkscape:window-height="1417"
     inkscape:window-x="1981"
     inkscape:window-y="-8"
     inkscape:window-maximized="1" />
  <metadata
     id="metadata2654">
    <rdf:RDF>
      <cc:Work
         rdf:about="">
        <dc:format>image/svg+xml</dc:format>
        <dc:type
           rdf:resource="http://purl.org/dc/dcmitype/StillImage" />
        <dc:title></dc:title>
      </cc:Work>
    </rdf:RDF>
  </metadata>
  <g
     inkscape:label="Calque 1"
     inkscape:groupmode="layer"
     id="layer1"
     transform="translate(0,-280.06667)">
    <g
       id="g3256"
       transform="translate(1.5e-7,0.5816065)">
      <path
         id="path2582"
         d="m 8.4666665,280.48118 6.6029535,3.73484 v 7.47141 l -6.6029535,3.73485 -6.6029538,-3.73485 v -7.47141 z"
         inkscape:connector-curvature="0"
         style="fill:#ffffff;stroke-width:0.01706189" />
      <g
         id="g2631"
         transform="matrix(0.22509334,0,0,0.22509334,-82.334096,256.73482)">
        <path
           style="fill:#8ed6fb;stroke-width:0.0757992"
           inkscape:connector-curvature="0"
           d="m 427.48816,154.13594 -23.12634,13.08294 v -10.18741 l 14.40943,-7.9286 z m 1.5842,-1.43261 V 125.3474 l -8.45919,4.88905 v 17.58541 z m -49.86829,1.43261 23.12633,13.08294 v -10.18741 l -14.41701,-7.9286 z m -1.58421,-1.43261 V 125.3474 l 8.45919,4.88905 v 17.58541 z m 0.99297,-29.12963 23.71757,-13.41646 v 9.84632 l -15.19774,8.36065 -0.12128,0.0682 z m 49.46656,0 -23.71757,-13.41646 v 9.84632 l 15.19774,8.35307 0.12128,0.0682 z"
           id="path2584" />
        <g
           transform="matrix(1.1916454,0,0,1.1916454,81.077153,-14.200224)"
           id="g2615">
          <path
             inkscape:connector-curvature="0"
             style="fill:#1a7492;stroke-width:0.09855564"
             d="m 257.32653,135.09631 13.11378,-7.26745 13.11379,7.26652 -13.11379,7.26745 z"
             id="path2601" />
          <path
             inkscape:connector-curvature="0"
             style="fill:#208eb2;stroke-width:0.09855564"
             d="m 257.32653,130.61707 13.11378,-7.26652 13.11379,7.26745 -13.11379,7.26559 z"
             id="path2603" />
          <path
             inkscape:connector-curvature="0"
             style="fill:#26a6d1;stroke-width:0.09855564"
             d="m 257.32653,126.13828 13.11378,-7.26652 13.11379,7.26745 -13.11379,7.26558 z"
             id="path2611" />
          <path
             id="path2613"
             d="m 257.0459,121.65949 13.39441,-7.42202 13.39442,7.42297 -13.39442,7.42106 z"
             style="fill:#95d3f6;fill-opacity:1;stroke-width:0.10066469"
             inkscape:connector-curvature="0" />
        </g>
      </g>
    </g>
  </g>
</svg>
