<svg xmlns="http://www.w3.org/2000/svg" viewBox="0 0 820 620">
  <defs>
    <linearGradient id="bgGrad" x1="0" y1="0" x2="0" y2="1">
      <stop offset="0%" stop-color="#0f1b2d"/>
      <stop offset="100%" stop-color="#162a46"/>
    </linearGradient>
    <linearGradient id="headGrad" x1="0" y1="0" x2="1" y2="1">
      <stop offset="0%" stop-color="#00bcd4"/>
      <stop offset="100%" stop-color="#4fc3f7"/>
    </linearGradient>
    <linearGradient id="midGrad" x1="0" y1="0" x2="1" y2="1">
      <stop offset="0%" stop-color="#7c4dff"/>
      <stop offset="100%" stop-color="#b388ff"/>
    </linearGradient>
    <linearGradient id="baseGrad" x1="0" y1="0" x2="1" y2="1">
      <stop offset="0%" stop-color="#ff6d00"/>
      <stop offset="100%" stop-color="#ffab40"/>
    </linearGradient>
    <linearGradient id="arrowGrad" x1="0" y1="0" x2="0" y2="1">
      <stop offset="0%" stop-color="#4fc3f7"/>
      <stop offset="100%" stop-color="#b388ff"/>
    </linearGradient>
  </defs>

  <!-- Background -->
  <rect width="820" height="620" rx="16" fill="url(#bgGrad)"/>

  <!-- Subtle grid -->
  <g opacity="0.04" stroke="#fff" stroke-width="1">
    <line x1="40" y1="0" x2="40" y2="620"/><line x1="80" y1="0" x2="80" y2="620"/>
    <line x1="120" y1="0" x2="120" y2="620"/><line x1="160" y1="0" x2="160" y2="620"/>
    <line x1="200" y1="0" x2="200" y2="620"/><line x1="240" y1="0" x2="240" y2="620"/>
    <line x1="280" y1="0" x2="280" y2="620"/><line x1="320" y1="0" x2="320" y2="620"/>
    <line x1="360" y1="0" x2="360" y2="620"/><line x1="400" y1="0" x2="400" y2="620"/>
    <line x1="440" y1="0" x2="440" y2="620"/><line x1="480" y1="0" x2="480" y2="620"/>
    <line x1="520" y1="0" x2="520" y2="620"/><line x1="560" y1="0" x2="560" y2="620"/>
    <line x1="600" y1="0" x2="600" y2="620"/><line x1="640" y1="0" x2="640" y2="620"/>
    <line x1="680" y1="0" x2="680" y2="620"/><line x1="720" y1="0" x2="720" y2="620"/>
    <line x1="760" y1="0" x2="760" y2="620"/><line x1="800" y1="0" x2="800" y2="620"/>
    <line x1="0" y1="40" x2="820" y2="40"/><line x1="0" y1="80" x2="820" y2="80"/>
    <line x1="0" y1="120" x2="820" y2="120"/><line x1="0" y1="160" x2="820" y2="160"/>
    <line x1="0" y1="200" x2="820" y2="200"/><line x1="0" y1="240" x2="820" y2="240"/>
    <line x1="0" y1="280" x2="820" y2="280"/><line x1="0" y1="320" x2="820" y2="320"/>
    <line x1="0" y1="360" x2="820" y2="360"/><line x1="0" y1="400" x2="820" y2="400"/>
    <line x1="0" y1="440" x2="820" y2="440"/><line x1="0" y1="480" x2="820" y2="480"/>
    <line x1="0" y1="520" x2="820" y2="520"/><line x1="0" y1="560" x2="820" y2="560"/>
    <line x1="0" y1="600" x2="820" y2="600"/>
  </g>

  <!-- Priority labels + dashed arrow -->
  <text x="42" y="50" font-family="sans-serif" font-size="11" fill="#4fc3f7" font-weight="600" letter-spacing="2" opacity="0.7">HIGHEST PRIORITY</text>
  <text x="42" y="580" font-family="sans-serif" font-size="11" fill="#ffab40" font-weight="600" letter-spacing="2" opacity="0.7">LOWEST PRIORITY</text>
  <line x1="30" y1="65" x2="30" y2="560" stroke="url(#arrowGrad)" stroke-width="2" stroke-dasharray="6 4" opacity="0.4"/>
  <polygon points="26,68 30,58 34,68" fill="#4fc3f7" opacity="0.5"/>
  <polygon points="26,557 30,567 34,557" fill="#ffab40" opacity="0.5"/>

  <!-- ═══ HEAD PROJECT ═══ -->
  <rect x="120" y="30" width="420" height="140" rx="12" fill="#0d2137" stroke="url(#headGrad)" stroke-width="2"/>
  <rect x="120" y="30" width="420" height="6" rx="3" fill="url(#headGrad)"/>
  <!-- Star icon -->
  <circle cx="152" cy="58" r="12" fill="#00bcd4" fill-opacity="0.15"/>
  <path d="M152,48 l2.5,5 5.5,0.8 -4,3.9 0.9,5.3 -4.9,-2.6 -4.9,2.6 0.9,-5.3 -4,-3.9 5.5,-0.8z" fill="#4fc3f7"/>
  <!-- Title -->
  <text x="172" y="62" font-family="sans-serif" font-size="16" fill="#4fc3f7" font-weight="700">Your Project</text>
  <text x="310" y="62" font-family="sans-serif" font-size="12" fill="#4fc3f7" opacity="0.6">HEAD - wins all conflicts</text>
  <!-- Content lines -->
  <text font-family="monospace" font-size="12" fill="#8ecae6">
    <tspan x="152" y="90">.layers.json</tspan>
    <tspan x="152" y="108" fill="#adb5bd">App/components/Button.jsx</tspan>
    <tspan x="152" y="126" fill="#adb5bd">App/pages/Home.jsx</tspan>
    <tspan x="152" y="144" fill="#adb5bd">webpack.config.js</tspan>
  </text>
  <!-- Badges -->
  <rect x="420" y="82" width="100" height="24" rx="4" fill="#00bcd4" fill-opacity="0.1" stroke="#00bcd4" stroke-opacity="0.3"/>
  <text x="435" y="98" font-family="sans-serif" font-size="11" fill="#4fc3f7">overrides</text>
  <rect x="420" y="112" width="100" height="24" rx="4" fill="#00bcd4" fill-opacity="0.1" stroke="#00bcd4" stroke-opacity="0.3"/>
  <text x="428" y="128" font-family="sans-serif" font-size="11" fill="#4fc3f7">custom vars</text>

  <!-- Arrow 1 -->
  <line x1="330" y1="170" x2="330" y2="210" stroke="#4fc3f7" stroke-width="2"/>
  <polygon points="324,210 330,222 336,210" fill="#4fc3f7"/>
  <rect x="280" y="180" width="100" height="22" rx="11" fill="#0d2137" stroke="#4fc3f7" stroke-width="1"/>
  <text x="302" y="195" font-family="sans-serif" font-size="11" fill="#4fc3f7" font-weight="600">extends</text>

  <!-- ═══ MIDDLE LAYER ═══ -->
  <rect x="120" y="220" width="420" height="140" rx="12" fill="#0d2137" stroke="url(#midGrad)" stroke-width="2"/>
  <rect x="120" y="220" width="420" height="6" rx="3" fill="url(#midGrad)"/>
  <!-- Package icon -->
  <circle cx="152" cy="248" r="12" fill="#7c4dff" fill-opacity="0.15"/>
  <rect x="143" y="242" width="18" height="14" rx="2" fill="none" stroke="#b388ff" stroke-width="1.5"/>
  <line x1="143" y1="246" x2="161" y2="246" stroke="#b388ff" stroke-width="1.5"/>
  <line x1="152" y1="242" x2="152" y2="246" stroke="#b388ff" stroke-width="1.5"/>
  <!-- Title -->
  <text x="172" y="252" font-family="sans-serif" font-size="16" fill="#b388ff" font-weight="700">lpack-react</text>
  <text x="280" y="252" font-family="sans-serif" font-size="12" fill="#b388ff" opacity="0.6">npm package - inheritable layer</text>
  <!-- Content -->
  <text font-family="monospace" font-size="12" fill="#ce93d8">
    <tspan x="152" y="280">webpack configs (www, api, static)</tspan>
    <tspan x="152" y="298" fill="#adb5bd">React 18, Sass, Express, SSR</tspan>
    <tspan x="152" y="316" fill="#adb5bd">Babel presets, HMR, loaders</tspan>
    <tspan x="152" y="334" fill="#adb5bd">App/index.client.js, App/index.server.js</tspan>
  </text>
  <!-- Badges -->
  <rect x="420" y="272" width="100" height="24" rx="4" fill="#7c4dff" fill-opacity="0.1" stroke="#7c4dff" stroke-opacity="0.3"/>
  <text x="441" y="288" font-family="sans-serif" font-size="11" fill="#b388ff">configs</text>
  <rect x="420" y="302" width="100" height="24" rx="4" fill="#7c4dff" fill-opacity="0.1" stroke="#7c4dff" stroke-opacity="0.3"/>
  <text x="443" y="318" font-family="sans-serif" font-size="11" fill="#b388ff">loaders</text>

  <!-- Arrow 2 -->
  <line x1="330" y1="360" x2="330" y2="400" stroke="#b388ff" stroke-width="2"/>
  <polygon points="324,400 330,412 336,400" fill="#b388ff"/>
  <rect x="280" y="370" width="100" height="22" rx="11" fill="#0d2137" stroke="#b388ff" stroke-width="1"/>
  <text x="302" y="385" font-family="sans-serif" font-size="11" fill="#b388ff" font-weight="600">extends</text>

  <!-- ═══ BASE LAYER ═══ -->
  <rect x="120" y="410" width="420" height="140" rx="12" fill="#0d2137" stroke="url(#baseGrad)" stroke-width="2"/>
  <rect x="120" y="410" width="420" height="6" rx="3" fill="url(#baseGrad)"/>
  <!-- Foundation icon (simple layers) -->
  <circle cx="152" cy="438" r="12" fill="#ff6d00" fill-opacity="0.15"/>
  <rect x="144" y="434" width="16" height="3" rx="1" fill="#ffab40"/>
  <rect x="142" y="439" width="20" height="3" rx="1" fill="#ffab40"/>
  <rect x="140" y="444" width="24" height="3" rx="1" fill="#ffab40"/>
  <!-- Title -->
  <text x="172" y="442" font-family="sans-serif" font-size="16" fill="#ffab40" font-weight="700">your-base-layer</text>
  <text x="312" y="442" font-family="sans-serif" font-size="12" fill="#ffab40" opacity="0.6">deepest ancestor - fallback</text>
  <!-- Content -->
  <text font-family="monospace" font-size="12" fill="#ffcc80">
    <tspan x="152" y="470">shared utilities and helpers</tspan>
    <tspan x="152" y="488" fill="#adb5bd">App/components/Button.jsx (base)</tspan>
    <tspan x="152" y="506" fill="#adb5bd">App/utils/api.js</tspan>
    <tspan x="152" y="524" fill="#adb5bd">common webpack config</tspan>
  </text>
  <!-- Badges -->
  <rect x="420" y="462" width="100" height="24" rx="4" fill="#ff6d00" fill-opacity="0.1" stroke="#ff6d00" stroke-opacity="0.3"/>
  <text x="440" y="478" font-family="sans-serif" font-size="11" fill="#ffab40">fallback</text>
  <rect x="420" y="492" width="100" height="24" rx="4" fill="#ff6d00" fill-opacity="0.1" stroke="#ff6d00" stroke-opacity="0.3"/>
  <text x="443" y="508" font-family="sans-serif" font-size="11" fill="#ffab40">shared</text>

  <!-- ═══ RIGHT PANEL: Resolution ═══ -->
  <rect x="580" y="60" width="200" height="500" rx="12" fill="#0a1628" stroke="#1e3a5f" stroke-width="1"/>
  <text x="600" y="90" font-family="sans-serif" font-size="13" fill="#4fc3f7" font-weight="700" letter-spacing="1">RESOLUTION</text>

  <!-- Import example -->
  <rect x="592" y="108" width="176" height="32" rx="6" fill="#122240"/>
  <text x="602" y="129" font-family="monospace" font-size="10" fill="#8ecae6">import "App/Button"</text>

  <!-- Step 1 -->
  <line x1="680" y1="140" x2="680" y2="160" stroke="#4fc3f7" stroke-width="1.5" stroke-dasharray="4 3"/>
  <circle cx="680" cy="175" r="13" fill="#00bcd4" fill-opacity="0.2" stroke="#00bcd4" stroke-width="1.5"/>
  <text x="675" y="180" font-family="sans-serif" font-size="12" fill="#4fc3f7" font-weight="700">1</text>
  <text x="700" y="180" font-family="sans-serif" font-size="11" fill="#e0e0e0">Check head</text>
  <rect x="600" y="192" width="168" height="22" rx="4" fill="#00bcd4" fill-opacity="0.1"/>
  <text x="610" y="207" font-family="monospace" font-size="10" fill="#4fc3f7">App/Button.jsx  FOUND</text>

  <!-- Step 2 -->
  <line x1="680" y1="218" x2="680" y2="238" stroke="#b388ff" stroke-width="1.5" stroke-dasharray="4 3"/>
  <circle cx="680" cy="253" r="13" fill="#7c4dff" fill-opacity="0.2" stroke="#7c4dff" stroke-width="1.5"/>
  <text x="675" y="258" font-family="sans-serif" font-size="12" fill="#b388ff" font-weight="700">2</text>
  <text x="700" y="258" font-family="sans-serif" font-size="11" fill="#e0e0e0">lpack-react</text>
  <rect x="600" y="270" width="168" height="22" rx="4" fill="#7c4dff" fill-opacity="0.08"/>
  <text x="610" y="285" font-family="monospace" font-size="10" fill="#666">skipped (head won)</text>

  <!-- Step 3 -->
  <line x1="680" y1="296" x2="680" y2="316" stroke="#ffab40" stroke-width="1.5" stroke-dasharray="4 3"/>
  <circle cx="680" cy="331" r="13" fill="#ff6d00" fill-opacity="0.2" stroke="#ff6d00" stroke-width="1.5"/>
  <text x="675" y="336" font-family="sans-serif" font-size="12" fill="#ffab40" font-weight="700">3</text>
  <text x="700" y="336" font-family="sans-serif" font-size="11" fill="#e0e0e0">base-layer</text>
  <rect x="600" y="348" width="168" height="22" rx="4" fill="#ff6d00" fill-opacity="0.08"/>
  <text x="610" y="363" font-family="monospace" font-size="10" fill="#666">skipped (head won)</text>

  <!-- Separator -->
  <line x1="600" y1="386" x2="768" y2="386" stroke="#1e3a5f" stroke-width="1"/>

  <!-- $super example -->
  <rect x="592" y="400" width="176" height="32" rx="6" fill="#122240"/>
  <text x="602" y="421" font-family="monospace" font-size="10" fill="#ce93d8">import "$super"</text>
  <text x="602" y="450" font-family="sans-serif" font-size="10" fill="#adb5bd">from head/App/Button.jsx:</text>
  <text x="602" y="466" font-family="sans-serif" font-size="10" fill="#b388ff">--> resolves to parent layer</text>
  <text x="602" y="482" font-family="sans-serif" font-size="10" fill="#b388ff">    App/Button.jsx (skips head)</text>

  <!-- Glob example -->
  <line x1="680" y1="492" x2="680" y2="508" stroke="#fff" stroke-width="1" stroke-dasharray="2 2" opacity="0.2"/>
  <rect x="592" y="512" width="176" height="32" rx="6" fill="#122240"/>
  <text x="602" y="533" font-family="monospace" font-size="10" fill="#8ecae6">import "App/ui/(*).js"</text>

  <!-- Bottom result bar -->
  <rect x="120" y="568" width="420" height="32" rx="8" fill="#122240" stroke="#1e3a5f" stroke-width="1"/>
  <text x="140" y="589" font-family="sans-serif" font-size="12" fill="#adb5bd">
    <tspan fill="#4fc3f7" font-weight="600">Result:</tspan> First match wins. Vars merge (head overrides parents).
  </text>
</svg>
